<svg width="111" height="48" fill="none" xmlns="http://www.w3.org/2000/svg"><path d="M24 0C10.746 0 0 10.746 0 24s10.746 24 24 24 24-10.746 24-24S37.254 0 24 0z" fill="#0DBA4B"/><path d="M31.942 15.564V24.5c0 1.267-.625 2.384-1.589 3.09a4.026 4.026 0 01-2.382.772h-4.024c-2.17.026-3.918 1.746-3.918 3.868 0 2.137 1.779 3.868 3.97 3.868 2.193 0 3.972-1.73 3.972-3.868 0-1.071.89-1.936 1.985-1.936 1.08 0 1.96.84 1.986 1.885v.056c0 2.864-1.6 5.362-3.971 6.7A8.066 8.066 0 0124 39.972c-1.445 0-2.8-.376-3.971-1.035-2.335-1.319-3.918-3.755-3.97-6.557v-.298a7.586 7.586 0 011.063-3.724 7.906 7.906 0 012.907-2.827 8.066 8.066 0 013.97-1.036h3.151c.456 0 .82-.355.82-.798v-7.923c0-.046.003-.071 0-.132-.073-2.075-1.82-3.739-3.965-3.739H24c-2.192 0-3.971 1.736-3.971 3.873 0 2.137 1.779 3.873 3.97 3.873h.006c.953 0 1.753.649 1.949 1.514.031.134.047.278.047.422 0 1.03-.826 1.87-1.874 1.932-.042 0-.085.005-.122.005h-.053a8.084 8.084 0 01-3.918-1.035c-2.372-1.34-3.97-3.842-3.97-6.71-.006-2.864 1.593-5.367 3.965-6.707a8.015 8.015 0 013.97-1.04h.006c1.446 0 2.801.376 3.966 1.035 2.314 1.303 3.891 3.719 3.97 6.5zm32.256 16.378c2.363 0 4.254-.799 5.604-1.686.652-.4.968-.954.968-1.73v-4.148c0-.776-.608-1.375-1.396-1.375h-4.388c-.675 0-1.238.533-1.238 1.198 0 .665.563 1.176 1.238 1.176h3.106v2.905c-.968.71-2.318 1.176-3.804 1.176-3.218 0-5.356-2.351-5.356-5.545v-.045c0-2.972 2.206-5.478 5.109-5.478 1.71 0 2.813.488 3.826 1.22.225.155.495.31.855.31.765 0 1.373-.62 1.373-1.353 0-.532-.293-.909-.563-1.109-1.44-1.02-3.016-1.574-5.379-1.574-4.748 0-8.124 3.681-8.124 8.029v.044c0 4.525 3.24 7.985 8.17 7.985zm16.635-.022c4.118 0 6.774-2.33 6.774-6.965v-7.563c0-.754-.608-1.353-1.373-1.353-.788 0-1.395.599-1.395 1.353v7.696c0 2.861-1.508 4.303-3.96 4.303-2.476 0-3.984-1.53-3.984-4.414v-7.585c0-.754-.608-1.353-1.373-1.353-.788 0-1.395.599-1.395 1.353v7.696c0 4.503 2.61 6.832 6.706 6.832zm16.717-.022h.158c.787 0 1.305-.422 1.597-1.11l5.536-12.864c.068-.155.135-.377.135-.576 0-.732-.607-1.31-1.372-1.31-.653 0-1.148.422-1.328.888l-4.613 11.29-4.546-11.201c-.225-.577-.698-.976-1.418-.976-.788 0-1.395.599-1.395 1.33 0 .245.067.444.157.644l5.514 12.775c.292.688.81 1.11 1.575 1.11zm10.519-1.464c0 .754.607 1.353 1.395 1.353.765 0 1.373-.6 1.373-1.353V17.392c0-.754-.608-1.353-1.373-1.353-.788 0-1.395.599-1.395 1.353v13.042z" fill="#fff"/></svg>